<?xml version="1.0" encoding="utf-8"?>
<!-- Generator: Adobe Illustrator 23.1.0, SVG Export Plug-In . SVG Version: 6.00 Build 0)  -->
<svg version="1.1" id="图层_1" xmlns="http://www.w3.org/2000/svg" xmlns:xlink="http://www.w3.org/1999/xlink" x="0px" y="0px"
	 viewBox="0 0 200 200" style="enable-background:new 0 0 200 200;" xml:space="preserve">
<style type="text/css">
	.st0{fill:#8a8a8a;}
</style>
<path class="st0" d="M177.8,0H22.2C9.9,0,0,9.9,0,22.2l0,0v155.6C0,190,9.9,200,22.2,200c0,0,0,0,0,0h155.6c5.9,0,11.5-2.3,15.7-6.5
	c4.2-4.2,6.5-9.8,6.5-15.7V22.2C200,10,190.1,0,177.8,0C177.8,0,177.8,0,177.8,0z M183.3,177.8c0,1.5-0.6,2.9-1.6,3.9
	c-1,1-2.5,1.6-3.9,1.6H22.2c-3.1,0-5.6-2.5-5.6-5.6V22.2c0-3.1,2.5-5.6,5.6-5.6h155.6c3.1,0,5.6,2.5,5.6,5.6L183.3,177.8
	L183.3,177.8z"/>
<path class="st0" d="M146.5,55.5c-1.4-1.4-3.4-2.2-5.4-2.2c-2,0-4,0.8-5.4,2.2L100,89.6L64.4,55.5c-3.1-2.8-8-2.6-10.9,0.4
	c-2.8,2.8-2.8,7.2,0,10.1L89.1,100l-35.6,34.1c-1.5,1.4-2.3,3.3-2.3,5.2c0,2,0.8,3.8,2.3,5.2c3,2.9,7.9,2.9,10.9,0l35.6-34.1
	l35.6,34.1c3,2.9,7.9,2.9,10.9,0c1.5-1.4,2.3-3.3,2.3-5.2c0-2-0.8-3.8-2.3-5.2L110.9,100l35.6-34.1c1.5-1.4,2.3-3.3,2.3-5.2
	C148.7,58.7,147.9,56.9,146.5,55.5z"/>
</svg>
