<?xml version="1.0" standalone="no"?><!DOCTYPE svg PUBLIC "-//W3C//DTD SVG 1.1//EN" "http://www.w3.org/Graphics/SVG/1.1/DTD/svg11.dtd"><svg t="1606056827612" class="icon" viewBox="0 0 1024 1024" version="1.1" xmlns="http://www.w3.org/2000/svg" p-id="8749" xmlns:xlink="http://www.w3.org/1999/xlink" width="200" height="200"><defs><style type="text/css"></style></defs><path d="M895.744 128l0.256 0.256v767.552l-0.256 0.256H128.192l-0.256-0.256V128.256L128.192 128h767.552zM896 0H128C57.6 0 0 57.6 0 128v768c0 70.4 57.6 128 128 128h768c70.4 0 128-57.6 128-128V128c0-70.4-57.6-128-128-128z" fill="#707070" p-id="8750"></path><path d="M672 256L512 416 352 256 256 352 416 512 256 672 352 768 512 608l160 160 96-96L608 512 768 352z" fill="#707070" p-id="8751"></path></svg>
