<?xml version="1.0" standalone="no"?><!DOCTYPE svg PUBLIC "-//W3C//DTD SVG 1.1//EN" "http://www.w3.org/Graphics/SVG/1.1/DTD/svg11.dtd"><svg t="1606186721925" class="icon" viewBox="0 0 1024 1024" version="1.1" xmlns="http://www.w3.org/2000/svg" p-id="3951" xmlns:xlink="http://www.w3.org/1999/xlink" width="200" height="200"><defs><style type="text/css"></style></defs><path d="M934.4 723.2c0 115.2-96 211.2-211.2 211.2H300.8c-115.2 0-211.2-96-211.2-211.2V300.8c0-115.2 96-211.2 211.2-211.2h422.4c115.2 0 211.2 96 211.2 211.2v422.4z" fill="#8a8a8a" opacity=".2" p-id="3952"></path><path d="M723.2 0H300.8C134.4 0 0 134.4 0 300.8v422.4C0 889.6 134.4 1024 300.8 1024h422.4C889.6 1024 1024 889.6 1024 723.2V300.8C1024 134.4 889.6 0 723.2 0z m211.2 723.2c0 115.2-96 211.2-211.2 211.2H300.8c-115.2 0-211.2-96-211.2-211.2V300.8c0-115.2 96-211.2 211.2-211.2h422.4c115.2 0 211.2 96 211.2 211.2v422.4z" fill="#8a8a8a" p-id="3953"></path><path d="M705.6 640l-131.2-131.2 131.2-131.2c17.6-17.6 17.6-44.8 0-64-17.6-17.6-44.8-17.6-64 0l-131.2 131.2-126.4-126.4c-17.6-17.6-44.8-17.6-64 0-17.6 17.6-17.6 44.8 0 64l126.4 126.4-126.4 126.4c-17.6 17.6-17.6 44.8 0 64 17.6 17.6 44.8 17.6 64 0l126.4-126.4 131.2 131.2c17.6 17.6 44.8 17.6 64 0 17.6-19.2 17.6-46.4 0-64z" fill="#8a8a8a" p-id="3954"></path></svg>