<?xml version="1.0" standalone="no"?><!DOCTYPE svg PUBLIC "-//W3C//DTD SVG 1.1//EN" "http://www.w3.org/Graphics/SVG/1.1/DTD/svg11.dtd"><svg t="1599712828247" class="icon" viewBox="0 0 1024 1024" version="1.1" xmlns="http://www.w3.org/2000/svg" p-id="19881" xmlns:xlink="http://www.w3.org/1999/xlink" width="200" height="200"><defs><style type="text/css"></style></defs><path d="M219.84 818.24l-108.48 96.512a37.12 37.12 0 0 1-49.312-55.456L871.872 138.528a37.12 37.12 0 1 1 49.376 55.456L796.16 305.28c12.64 21.856 22.752 45.344 29.984 70.144 106.976 20.288 186.944 112.16 186.944 222.336a225.472 225.472 0 0 1-67.712 160.832 232.192 232.192 0 0 1-162.752 66.272H280a273.824 273.824 0 0 1-60.16-6.624zM739.2 356L295.776 750.624h486.88a157.952 157.952 0 0 0 110.72-44.992 151.232 151.232 0 0 0 45.504-107.872c0-79.936-63.296-145.92-145.344-151.84a37.12 37.12 0 0 1-33.728-29.696 242.848 242.848 0 0 0-20.608-60.224zM84.064 741.504a262.08 262.08 0 0 1-73.184-181.76c0-129.504 94.304-238.24 220.768-260.992C290.144 203.072 395.776 142.624 512 142.624a329.6 329.6 0 0 1 189.216 59.36L643.136 252.8A255.808 255.808 0 0 0 512 216.864c-95.264 0-181.12 52.256-224.352 133.472a37.12 37.12 0 0 1-28.8 19.456c-98.688 10.656-173.728 92.256-173.728 189.952 0 51.584 20.896 98.432 54.912 132.8l-56 48.96z" p-id="19882"></path></svg>