<?xml version="1.0" standalone="no"?><!DOCTYPE svg PUBLIC "-//W3C//DTD SVG 1.1//EN" "http://www.w3.org/Graphics/SVG/1.1/DTD/svg11.dtd"><svg t="1606054687510" class="icon" viewBox="0 0 1024 1024" version="1.1" xmlns="http://www.w3.org/2000/svg" p-id="3536" xmlns:xlink="http://www.w3.org/1999/xlink" width="200" height="200"><defs><style type="text/css"></style></defs><path d="M895.863467 1023.726933H128.8192a127.931733 127.931733 0 0 1-127.7952-127.931733V128.887467A128 128 0 0 1 128.8192 1.024h767.044267c70.587733 0 127.863467 57.275733 127.863466 127.863467v767.044266a127.863467 127.863467 0 0 1-127.863466 127.7952zM739.396267 107.861333H292.864l-0.341333 212.650667a31.9488 31.9488 0 0 0 31.9488 31.9488h382.5664a31.9488 31.9488 0 0 0 31.9488-31.9488l0.477866-212.650667z m188.347733 64.853334a63.8976 63.8976 0 0 0-63.965867-63.965867h-31.9488v275.797333c0 35.293867-28.672 63.8976-63.8976 63.8976H256.682667a63.8976 63.8976 0 0 1-63.8976-63.8976v-275.797333h-30.72a63.8976 63.8976 0 0 0-63.8976 63.965867v699.460266c0 35.2256 28.535467 52.770133 63.8976 52.770134h701.576533c35.293867 0 63.965867-17.408 63.965867-52.770134V172.714667zM609.757867 320.1024c-17.749333 0-41.710933-13.789867-41.710934-31.3344V160.768c0-17.6128 24.1664-32.3584 41.710934-32.3584 17.749333 0 41.7792 14.882133 41.7792 32.3584V288.768c0.136533 17.6128-24.029867 31.402667-41.7792 31.402667z" fill="#8a8a8a" p-id="3537"></path></svg>
